#!OML:ASF I:\golf\golf\golf 2\Subject 1\2002-09-07\Subject1.ASF
:FULLY-SPECIFIED
:DEGREES
195
root -10.302 17.917 5.66584 -13.766 73.4973 -29.2093
lowerback 4.09732 1.0589 -4.50303
upperback 5.56424 1.41543 1.89957
thorax 3.31061 0.550669 4.48118
lowerneck -12.0154 2.95917 4.35651
upperneck 42.2672 7.9503 -5.47394
head 18.3028 3.70885 -1.72641
rclavicle -1.03368e-014 -5.56597e-015
rhumerus -11.2577 23.7448 -101.11
rradius 37.7918
rwrist -41.0908
rhand -33.3219 -10.3874
rfingers 7.12502
rthumb -6.52501 -40.2669
lclavicle -1.03368e-014 -5.56597e-015
lhumerus -9.42435 -38.8662 105.969
lradius 35.3418
lwrist 48.3614
lhand -0.644101 54.7947
lfingers 7.12502
lthumb 24.9733 83.1826
rfemur -31.705 2.96544 21.5821
rtibia 26.6429
rfoot -6.37758 5.25045
rtoes 5.5792
lfemur -27.0794 10.6039 -7.03537
ltibia 32.5168
lfoot -12.057 7.51096
ltoes -18.5293
196
root -10.2999 17.9162 5.66401 -13.7517 73.5246 -29.1669
lowerback 4.10202 1.19715 -4.41633
upperback 5.55401 1.60278 1.77005
thorax 3.28064 0.651055 4.29315
lowerneck -11.9907 2.831 4.63384
upperneck 42.2848 7.67974 -5.48903
head 18.2975 3.64745 -1.8352
rclavicle 1.59028e-014 -2.70347e-014
rhumerus -11.2375 23.2785 -101.192
rradius 37.7858
rwrist -41.1252
rhand -33.3563 -10.3433
rfingers 7.12502
rthumb -6.5582 -40.2218
lclavicle 1.59028e-014 -2.70347e-014
lhumerus -9.59362 -39.4098 105.979
lradius 35.3884
lwrist 48.4783
lhand 0.306473 54.8516
lfingers 7.12502
lthumb 25.8839 83.1098
rfemur -31.6607 3.0245 21.5194
rtibia 26.6322
rfoot -6.38214 5.18862
rtoes 5.24127
lfemur -27.0601 10.6173 -7.07723
ltibia 32.5256
lfoot -12.0613 7.52345
ltoes -18.9398
197
root -10.2985 17.9164 5.66297 -13.7596 73.5254 -29.1824
lowerback 4.06851 1.28866 -4.37234
upperback 5.54462 1.72743 1.7004
thorax 3.27873 0.716382 4.194
lowerneck -12.0069 2.74949 4.8186
upperneck 42.361 7.53038 -5.52374
head 18.347 3.61617 -1.91385
rclavicle -2.42517e-014 -1.59028e-015
rhumerus -11.3001 23.2364 -101.244
rradius 37.9596
rwrist -41.4944
rhand -33.5493 -10.3304
rfingers 7.12502
rthumb -6.74452 -40.2029
lclavicle -2.42517e-014 -1.59028e-015
lhumerus -9.66997 -39.6246 105.993
lradius 35.3602
lwrist 48.3894
lhand -0.355916 55.1798
lfingers 7.12502
lthumb 25.2494 83.5291
rfemur -31.6584 3.13078 21.4744
rtibia 26.6286
rfoot -6.41339 5.10445
rtoes 4.76029
lfemur -27.0647 10.6326 -7.08626
ltibia 32.5225
lfoot -12.0747 7.47957
ltoes -19.0084
198
root -10.2967 17.9175 5.66207 -13.9561 73.4923 -29.4328
lowerback 3.98538 1.25187 -4.42111
upperback 5.55068 1.67898 1.80351
thorax 3.33351 0.686571 4.33229
lowerneck -12.0383 2.79549 4.65348
upperneck 42.4028 7.6592 -5.51465
head 18.3844 3.64159 -1.85511
rclavicle -1.90833e-014 -1.27222e-014
rhumerus -11.3581 23.6808 -101.202
rradius 38.0318
rwrist -41.7418
rhand -33.6316 -10.3049
rfingers 7.12502
rthumb -6.82392 -40.1749
lclavicle -1.90833e-014 -1.27222e-014
lhumerus -9.56292 -39.3472 105.971
lradius 35.3354
lwrist 48.3223
lhand -0.573362 55.182
lfingers 7.12502
lthumb 25.0411 83.5605
rfemur -31.697 3.13536 21.5613
rtibia 26.6267
rfoot -6.45338 5.09416
rtoes 3.86638
lfemur -27.0938 10.6495 -7.00536
ltibia 32.5016
lfoot -12.0889 7.42897
ltoes -18.6743
199
root -10.2943 17.9171 5.66104 -14.116 73.4825 -29.6197
lowerback 3.91261 1.16585 -4.5481
upperback 5.58019 1.56357 1.96323
thorax 3.41251 0.618373 4.5754
lowerneck -12.0692 2.90357 4.33818
upperneck 42.4021 7.90765 -5.47251
head 18.3957 3.69295 -1.7301
rclavicle 4.49253e-014 1.90833e-014
rhumerus -11.4035 24.2206 -101.108
rradius 38.0394
rwrist -41.7649
rhand -33.4479 -10.3865
rfingers 7.12502
rthumb -6.64664 -40.2621
lclavicle 4.49253e-014 1.90833e-014
lhumerus -9.36483 -38.884 105.931
lradius 35.3267
lwrist 48.3879
lhand 2.28451 53.6676
lfingers 7.12502
lthumb 27.7767 81.6352
rfemur -31.6991 3.12291 21.6184
rtibia 26.6053
rfoot -6.44209 5.06543
rtoes 3.32057
lfemur -27.0918 10.6508 -6.9531
ltibia 32.4738
lfoot -12.0948 7.42114
ltoes -18.5286
